<?xml version="1.0" encoding="UTF-8" standalone="no"?>
<!-- Generator: Adobe Illustrator 19.0.0, SVG Export Plug-In . SVG Version: 6.00 Build 0)  -->

<svg
   xmlns:dc="http://purl.org/dc/elements/1.1/"
   xmlns:cc="http://creativecommons.org/ns#"
   xmlns:rdf="http://www.w3.org/1999/02/22-rdf-syntax-ns#"
   xmlns:svg="http://www.w3.org/2000/svg"
   xmlns="http://www.w3.org/2000/svg"
   xmlns:sodipodi="http://sodipodi.sourceforge.net/DTD/sodipodi-0.dtd"
   xmlns:inkscape="http://www.inkscape.org/namespaces/inkscape"
   version="1.1"
   id="Layer_1"
   x="0px"
   y="0px"
   viewBox="0 0 315 315"
   style="enable-background:new 0 0 315 315;"
   xml:space="preserve"
   inkscape:version="0.91 r13725"
   sodipodi:docname="photo-camera.svg"
   inkscape:export-filename="/home/lamm/Projetos/fas-das-fotinhas/fas_das_fotinhas/static/img/photo-camera.png"
   inkscape:export-xdpi="6.8600001"
   inkscape:export-ydpi="6.8600001"><metadata
     id="metadata63"><rdf:RDF><cc:Work
         rdf:about=""><dc:format>image/svg+xml</dc:format><dc:type
           rdf:resource="http://purl.org/dc/dcmitype/StillImage" /></cc:Work></rdf:RDF></metadata><defs
     id="defs61" /><sodipodi:namedview
     pagecolor="#ffffff"
     bordercolor="#666666"
     borderopacity="1"
     objecttolerance="10"
     gridtolerance="10"
     guidetolerance="10"
     inkscape:pageopacity="0"
     inkscape:pageshadow="2"
     inkscape:window-width="1366"
     inkscape:window-height="712"
     id="namedview59"
     showgrid="false"
     inkscape:zoom="1.4984127"
     inkscape:cx="51.846167"
     inkscape:cy="144.70767"
     inkscape:window-x="0"
     inkscape:window-y="30"
     inkscape:window-maximized="1"
     inkscape:current-layer="Layer_1" /><rect
     ry="3.7030478"
     y="57.318752"
     x="67.936539"
     height="43.90757"
     width="44.215946"
     id="rect4280"
     style="fill:#ffffff;fill-opacity:1;stroke:#838383;stroke-width:13.00000095;stroke-linecap:butt;stroke-linejoin:miter;stroke-miterlimit:4;stroke-dasharray:none;stroke-opacity:1" /><rect
     ry="41.377529"
     y="77.451492"
     x="32.514877"
     height="185.63974"
     width="253.97447"
     id="rect4282"
     style="fill:#ca7a7a;fill-opacity:1;stroke:#838383;stroke-width:15.00000095;stroke-linecap:butt;stroke-linejoin:miter;stroke-miterlimit:4;stroke-dasharray:none;stroke-opacity:1" /><rect
     style="fill:#e16b5a;fill-opacity:1;stroke:#414042;stroke-width:13.00000095;stroke-linecap:butt;stroke-linejoin:miter;stroke-miterlimit:4;stroke-dasharray:none;stroke-opacity:1"
     id="rect4209-3"
     width="35.992855"
     height="34.431076"
     x="71.927452"
     y="61.261765"
     ry="2.9038253" /><g
     id="g29" /><g
     id="g31" /><g
     id="g33" /><g
     id="g35" /><g
     id="g37" /><g
     id="g39" /><g
     id="g41" /><g
     id="g43" /><g
     id="g45" /><g
     id="g47" /><g
     id="g49" /><g
     id="g51" /><g
     id="g53" /><g
     id="g55" /><g
     id="g57" /><rect
     style="fill:#e16b5a;fill-opacity:1;stroke:#414042;stroke-width:14.99999905;stroke-linecap:butt;stroke-linejoin:miter;stroke-miterlimit:4;stroke-dasharray:none;stroke-opacity:1"
     id="rect4209"
     width="247.00546"
     height="178.61121"
     x="35.999386"
     y="80.965759"
     ry="39.810932" /><path
     inkscape:connector-curvature="0"
     id="path9"
     d="m 159.50211,221.77724 c -28.65424,0 -51.96691,-23.25527 -51.96691,-51.83898 0,-28.5837 23.31267,-51.83898 51.96691,-51.83898 28.65425,0 51.96692,23.25528 51.96692,51.83898 0,28.58371 -23.31267,51.83898 -51.96692,51.83898 z"
     style="fill:#ffffff" /><path
     style="fill:#414042"
     d="m 159.50211,228.11927 c 32.16044,0 58.32459,-26.09974 58.32459,-58.18101 0,-32.08127 -26.16415,-58.181 -58.32459,-58.181 -32.16045,0 -58.32459,26.09973 -58.32459,58.181 0,32.08127 26.16414,58.18101 58.32459,58.18101 z m 0,-103.03811 c 24.79552,0 44.9678,20.12263 44.9678,44.8571 0,24.73448 -20.17228,44.8571 -44.9678,44.8571 -24.79552,0 -44.96781,-20.12262 -44.96781,-44.8571 0,-24.73447 20.17229,-44.8571 44.96781,-44.8571 z"
     id="path19"
     inkscape:connector-curvature="0" /><rect
     id="rect11"
     height="25.79598"
     width="25.859642"
     style="fill:#ffe664;fill-opacity:1"
     y="105.57127"
     x="227.91957" /><path
     style="fill:#414042"
     d="m 227.91956,137.41319 25.85965,0 c 3.34801,0 6.06085,-2.70696 6.06085,-6.04593 l 0,-25.79598 c 0,-3.33897 -2.71284,-6.045938 -6.06085,-6.045938 l -25.85965,0 c -3.34801,0 -6.06085,2.706968 -6.06085,6.045938 l 0,25.79598 c 0,3.33897 2.71284,6.04593 6.06085,6.04593 z m 6.06086,-25.79598 13.73793,0 0,13.70412 -13.73793,0 0,-13.70412 z"
     id="path23"
     inkscape:connector-curvature="0" /><g
     transform="matrix(0.47876222,0,0,0.4775836,-284.7932,96.396017)"
     id="g4238"
     style="stroke:#414042;stroke-width:20.91295242;stroke-miterlimit:4;stroke-dasharray:none;stroke-opacity:1"><path
       inkscape:connector-curvature="0"
       id="path4240"
       d="m 928.00829,212.34838 c -32.17945,0 -58.36017,-26.18072 -58.36017,-58.36017 0,-32.17945 26.18072,-58.360173 58.36017,-58.360173 32.17946,0 58.36018,26.180723 58.36018,58.360173 0,32.17945 -26.18072,58.36017 -58.36018,58.36017 z"
       style="fill:#f7e390;fill-opacity:1;stroke:#414042;stroke-width:20.91295242;stroke-miterlimit:4;stroke-dasharray:none;stroke-opacity:1" /><path
       style="fill:#414042;stroke:#414042;stroke-width:20.91295242;stroke-miterlimit:4;stroke-dasharray:none;stroke-opacity:1"
       d="m 928.00829,219.48821 c 36.117,0 65.5,-29.383 65.5,-65.5 0,-36.117 -29.383,-65.500002 -65.5,-65.500002 -36.117,0 -65.5,29.383002 -65.5,65.500002 0,36.117 29.383,65.5 65.5,65.5 z m 0,-115.99999 c 27.846,0 50.49999,22.65399 50.49999,50.49999 0,27.846 -22.65399,50.49999 -50.49999,50.49999 -27.846,0 -50.49999,-22.65399 -50.49999,-50.49999 0,-27.846 22.65399,-50.49999 50.49999,-50.49999 z"
       id="path4242"
       inkscape:connector-curvature="0" /></g></svg>